# xmcd
#
# Track frame offsets: 
#        150
#        43795
#        65992
#        123351
#        155230
#        179549
#
# Disc length: 2562 seconds
#
# Revision: 0
# Processed by: cddbd v1.5.2PL0 Copyright (c) Steve Scherf et al.
# Submitted via: ExactAudioCopy v0.95b3
#
DISCID=5b0a0006
DTITLE=Johnny Winter - Texas International Pop Festival 1969
DYEAR=1969
DGENRE=Blues
TTITLE0=Intro - Mean Town Blues
TTITLE1=Black Cat Bone
TTITLE2=Mean Mistreater
TTITLE3=Talk To Your Daughter
TTITLE4=Look Up
TTITLE5=I Can Love You Baby
EXTD=
EXTT0=
EXTT1=
EXTT2=
EXTT3=
EXTT4=
EXTT5=
PLAYORDER=
